<svg width="15" height="14" viewBox="0 0 15 14" fill="none" xmlns="http://www.w3.org/2000/svg">
<path d="M7.49998 0.333374C11.182 0.333374 14.1666 3.31804 14.1666 7.00004C14.1666 10.682 11.182 13.6667 7.49998 13.6667C3.81798 13.6667 0.833313 10.682 0.833313 7.00004C0.833313 3.31804 3.81798 0.333374 7.49998 0.333374ZM7.49998 1.66671C6.08549 1.66671 4.72894 2.22861 3.72874 3.2288C2.72855 4.229 2.16665 5.58555 2.16665 7.00004C2.16665 8.41453 2.72855 9.77108 3.72874 10.7713C4.72894 11.7715 6.08549 12.3334 7.49998 12.3334C8.91447 12.3334 10.271 11.7715 11.2712 10.7713C12.2714 9.77108 12.8333 8.41453 12.8333 7.00004C12.8333 5.58555 12.2714 4.229 11.2712 3.2288C10.271 2.22861 8.91447 1.66671 7.49998 1.66671ZM10.0553 3.89137C10.1318 3.83774 10.2247 3.81281 10.3178 3.82098C10.4108 3.82915 10.498 3.86989 10.564 3.93604C10.6298 4.00187 10.6702 4.0889 10.6778 4.18168C10.6855 4.27445 10.6601 4.36694 10.606 4.44271C9.15265 6.47337 8.35265 7.56137 8.20731 7.70737C8.01959 7.89472 7.7652 7.99994 7.49998 7.99994C7.23476 7.99994 6.98037 7.89472 6.79265 7.70737C6.6053 7.51965 6.50008 7.26526 6.50008 7.00004C6.50008 6.73482 6.6053 6.48044 6.79265 6.29271C7.04198 6.04404 8.12931 5.24337 10.0553 3.89137ZM11.1666 6.33337C11.3435 6.33337 11.513 6.40361 11.6381 6.52864C11.7631 6.65366 11.8333 6.82323 11.8333 7.00004C11.8333 7.17685 11.7631 7.34642 11.6381 7.47145C11.513 7.59647 11.3435 7.66671 11.1666 7.66671C10.9898 7.66671 10.8203 7.59647 10.6952 7.47145C10.5702 7.34642 10.5 7.17685 10.5 7.00004C10.5 6.82323 10.5702 6.65366 10.6952 6.52864C10.8203 6.40361 10.9898 6.33337 11.1666 6.33337ZM3.83331 6.33337C4.01012 6.33337 4.17969 6.40361 4.30472 6.52864C4.42974 6.65366 4.49998 6.82323 4.49998 7.00004C4.49998 7.17685 4.42974 7.34642 4.30472 7.47145C4.17969 7.59647 4.01012 7.66671 3.83331 7.66671C3.6565 7.66671 3.48693 7.59647 3.36191 7.47145C3.23688 7.34642 3.16665 7.17685 3.16665 7.00004C3.16665 6.82323 3.23688 6.65366 3.36191 6.52864C3.48693 6.40361 3.6565 6.33337 3.83331 6.33337ZM5.37865 3.93604C5.50365 4.06122 5.57381 4.23094 5.57368 4.40785C5.57356 4.58475 5.50316 4.75437 5.37798 4.87937C5.2528 5.00438 5.08308 5.07454 4.90618 5.07441C4.72927 5.07429 4.55965 5.00389 4.43465 4.87871C4.37275 4.81672 4.32367 4.74316 4.2902 4.6622C4.25674 4.58125 4.23955 4.4945 4.23961 4.4069C4.23967 4.31931 4.25699 4.23258 4.29056 4.15167C4.32414 4.07077 4.37333 3.99727 4.43531 3.93537C4.5605 3.81037 4.73021 3.74021 4.90712 3.74034C4.99471 3.7404 5.08144 3.75771 5.16235 3.79129C5.24325 3.82487 5.31675 3.87406 5.37865 3.93604ZM7.49998 2.66671C7.67679 2.66671 7.84636 2.73695 7.97138 2.86197C8.09641 2.98699 8.16665 3.15656 8.16665 3.33337C8.16665 3.51019 8.09641 3.67975 7.97138 3.80478C7.84636 3.9298 7.67679 4.00004 7.49998 4.00004C7.32317 4.00004 7.1536 3.9298 7.02858 3.80478C6.90355 3.67975 6.83331 3.51019 6.83331 3.33337C6.83331 3.15656 6.90355 2.98699 7.02858 2.86197C7.1536 2.73695 7.32317 2.66671 7.49998 2.66671Z" fill="white"/>
</svg>
